<mxfile host="app.diagrams.net" agent="Mozilla/5.0 (Windows NT 10.0; Win64; x64) AppleWebKit/537.36 (KHTML, like Gecko) Chrome/131.0.0.0 Safari/537.36 Edg/131.0.0.0" version="25.0.3">
  <diagram name="Page-1" id="xfmKbQUrKlYsP6V0HJd9">
    <mxGraphModel dx="1856" dy="1163" grid="0" gridSize="10" guides="1" tooltips="1" connect="1" arrows="1" fold="1" page="0" pageScale="1" pageWidth="850" pageHeight="1100" math="0" shadow="0">
      <root>
        <mxCell id="0" />
        <mxCell id="1" parent="0" />
        <mxCell id="2oovQzZDUYRvniz2K5Hy-1" value="users" style="shape=table;startSize=30;container=1;collapsible=1;childLayout=tableLayout;fixedRows=1;rowLines=0;fontStyle=1;align=center;resizeLast=1;html=1;" vertex="1" parent="1">
          <mxGeometry x="-217" y="-127" width="252.30434782608717" height="300" as="geometry" />
        </mxCell>
        <mxCell id="2oovQzZDUYRvniz2K5Hy-2" value="" style="shape=tableRow;horizontal=0;startSize=0;swimlaneHead=0;swimlaneBody=0;fillColor=none;collapsible=0;dropTarget=0;points=[[0,0.5],[1,0.5]];portConstraint=eastwest;top=0;left=0;right=0;bottom=1;" vertex="1" parent="2oovQzZDUYRvniz2K5Hy-1">
          <mxGeometry y="30" width="252.30434782608717" height="30" as="geometry" />
        </mxCell>
        <mxCell id="2oovQzZDUYRvniz2K5Hy-3" value="PK" style="shape=partialRectangle;connectable=0;fillColor=none;top=0;left=0;bottom=0;right=0;fontStyle=1;overflow=hidden;whiteSpace=wrap;html=1;" vertex="1" parent="2oovQzZDUYRvniz2K5Hy-2">
          <mxGeometry width="30" height="30" as="geometry">
            <mxRectangle width="30" height="30" as="alternateBounds" />
          </mxGeometry>
        </mxCell>
        <mxCell id="2oovQzZDUYRvniz2K5Hy-4" value="UniqueID" style="shape=partialRectangle;connectable=0;fillColor=none;top=0;left=0;bottom=0;right=0;align=left;spacingLeft=6;fontStyle=5;overflow=hidden;whiteSpace=wrap;html=1;" vertex="1" parent="2oovQzZDUYRvniz2K5Hy-2">
          <mxGeometry x="30" width="222.30434782608717" height="30" as="geometry">
            <mxRectangle width="222.30434782608717" height="30" as="alternateBounds" />
          </mxGeometry>
        </mxCell>
        <mxCell id="2oovQzZDUYRvniz2K5Hy-5" value="" style="shape=tableRow;horizontal=0;startSize=0;swimlaneHead=0;swimlaneBody=0;fillColor=none;collapsible=0;dropTarget=0;points=[[0,0.5],[1,0.5]];portConstraint=eastwest;top=0;left=0;right=0;bottom=0;" vertex="1" parent="2oovQzZDUYRvniz2K5Hy-1">
          <mxGeometry y="60" width="252.30434782608717" height="30" as="geometry" />
        </mxCell>
        <mxCell id="2oovQzZDUYRvniz2K5Hy-6" value="" style="shape=partialRectangle;connectable=0;fillColor=none;top=0;left=0;bottom=0;right=0;editable=1;overflow=hidden;whiteSpace=wrap;html=1;" vertex="1" parent="2oovQzZDUYRvniz2K5Hy-5">
          <mxGeometry width="30" height="30" as="geometry">
            <mxRectangle width="30" height="30" as="alternateBounds" />
          </mxGeometry>
        </mxCell>
        <mxCell id="2oovQzZDUYRvniz2K5Hy-7" value="email varchar(200)" style="shape=partialRectangle;connectable=0;fillColor=none;top=0;left=0;bottom=0;right=0;align=left;spacingLeft=6;overflow=hidden;whiteSpace=wrap;html=1;" vertex="1" parent="2oovQzZDUYRvniz2K5Hy-5">
          <mxGeometry x="30" width="222.30434782608717" height="30" as="geometry">
            <mxRectangle width="222.30434782608717" height="30" as="alternateBounds" />
          </mxGeometry>
        </mxCell>
        <mxCell id="2oovQzZDUYRvniz2K5Hy-8" value="" style="shape=tableRow;horizontal=0;startSize=0;swimlaneHead=0;swimlaneBody=0;fillColor=none;collapsible=0;dropTarget=0;points=[[0,0.5],[1,0.5]];portConstraint=eastwest;top=0;left=0;right=0;bottom=0;" vertex="1" parent="2oovQzZDUYRvniz2K5Hy-1">
          <mxGeometry y="90" width="252.30434782608717" height="30" as="geometry" />
        </mxCell>
        <mxCell id="2oovQzZDUYRvniz2K5Hy-9" value="" style="shape=partialRectangle;connectable=0;fillColor=none;top=0;left=0;bottom=0;right=0;editable=1;overflow=hidden;whiteSpace=wrap;html=1;" vertex="1" parent="2oovQzZDUYRvniz2K5Hy-8">
          <mxGeometry width="30" height="30" as="geometry">
            <mxRectangle width="30" height="30" as="alternateBounds" />
          </mxGeometry>
        </mxCell>
        <mxCell id="2oovQzZDUYRvniz2K5Hy-10" value="username varchar(200)" style="shape=partialRectangle;connectable=0;fillColor=none;top=0;left=0;bottom=0;right=0;align=left;spacingLeft=6;overflow=hidden;whiteSpace=wrap;html=1;" vertex="1" parent="2oovQzZDUYRvniz2K5Hy-8">
          <mxGeometry x="30" width="222.30434782608717" height="30" as="geometry">
            <mxRectangle width="222.30434782608717" height="30" as="alternateBounds" />
          </mxGeometry>
        </mxCell>
        <mxCell id="2oovQzZDUYRvniz2K5Hy-11" value="" style="shape=tableRow;horizontal=0;startSize=0;swimlaneHead=0;swimlaneBody=0;fillColor=none;collapsible=0;dropTarget=0;points=[[0,0.5],[1,0.5]];portConstraint=eastwest;top=0;left=0;right=0;bottom=0;" vertex="1" parent="2oovQzZDUYRvniz2K5Hy-1">
          <mxGeometry y="120" width="252.30434782608717" height="30" as="geometry" />
        </mxCell>
        <mxCell id="2oovQzZDUYRvniz2K5Hy-12" value="" style="shape=partialRectangle;connectable=0;fillColor=none;top=0;left=0;bottom=0;right=0;editable=1;overflow=hidden;whiteSpace=wrap;html=1;" vertex="1" parent="2oovQzZDUYRvniz2K5Hy-11">
          <mxGeometry width="30" height="30" as="geometry">
            <mxRectangle width="30" height="30" as="alternateBounds" />
          </mxGeometry>
        </mxCell>
        <mxCell id="2oovQzZDUYRvniz2K5Hy-13" value="password varchar(200)" style="shape=partialRectangle;connectable=0;fillColor=none;top=0;left=0;bottom=0;right=0;align=left;spacingLeft=6;overflow=hidden;whiteSpace=wrap;html=1;" vertex="1" parent="2oovQzZDUYRvniz2K5Hy-11">
          <mxGeometry x="30" width="222.30434782608717" height="30" as="geometry">
            <mxRectangle width="222.30434782608717" height="30" as="alternateBounds" />
          </mxGeometry>
        </mxCell>
        <mxCell id="2oovQzZDUYRvniz2K5Hy-14" value="" style="shape=tableRow;horizontal=0;startSize=0;swimlaneHead=0;swimlaneBody=0;fillColor=none;collapsible=0;dropTarget=0;points=[[0,0.5],[1,0.5]];portConstraint=eastwest;top=0;left=0;right=0;bottom=0;" vertex="1" parent="2oovQzZDUYRvniz2K5Hy-1">
          <mxGeometry y="150" width="252.30434782608717" height="30" as="geometry" />
        </mxCell>
        <mxCell id="2oovQzZDUYRvniz2K5Hy-15" value="" style="shape=partialRectangle;connectable=0;fillColor=none;top=0;left=0;bottom=0;right=0;editable=1;overflow=hidden;whiteSpace=wrap;html=1;" vertex="1" parent="2oovQzZDUYRvniz2K5Hy-14">
          <mxGeometry width="30" height="30" as="geometry">
            <mxRectangle width="30" height="30" as="alternateBounds" />
          </mxGeometry>
        </mxCell>
        <mxCell id="2oovQzZDUYRvniz2K5Hy-16" value="type enum(mhs, admin, outsource)" style="shape=partialRectangle;connectable=0;fillColor=none;top=0;left=0;bottom=0;right=0;align=left;spacingLeft=6;overflow=hidden;whiteSpace=wrap;html=1;" vertex="1" parent="2oovQzZDUYRvniz2K5Hy-14">
          <mxGeometry x="30" width="222.30434782608717" height="30" as="geometry">
            <mxRectangle width="222.30434782608717" height="30" as="alternateBounds" />
          </mxGeometry>
        </mxCell>
        <mxCell id="2oovQzZDUYRvniz2K5Hy-33" value="" style="shape=tableRow;horizontal=0;startSize=0;swimlaneHead=0;swimlaneBody=0;fillColor=none;collapsible=0;dropTarget=0;points=[[0,0.5],[1,0.5]];portConstraint=eastwest;top=0;left=0;right=0;bottom=0;" vertex="1" parent="2oovQzZDUYRvniz2K5Hy-1">
          <mxGeometry y="180" width="252.30434782608717" height="30" as="geometry" />
        </mxCell>
        <mxCell id="2oovQzZDUYRvniz2K5Hy-34" value="" style="shape=partialRectangle;connectable=0;fillColor=none;top=0;left=0;bottom=0;right=0;editable=1;overflow=hidden;whiteSpace=wrap;html=1;" vertex="1" parent="2oovQzZDUYRvniz2K5Hy-33">
          <mxGeometry width="30" height="30" as="geometry">
            <mxRectangle width="30" height="30" as="alternateBounds" />
          </mxGeometry>
        </mxCell>
        <mxCell id="2oovQzZDUYRvniz2K5Hy-35" value="created_at datetime" style="shape=partialRectangle;connectable=0;fillColor=none;top=0;left=0;bottom=0;right=0;align=left;spacingLeft=6;overflow=hidden;whiteSpace=wrap;html=1;" vertex="1" parent="2oovQzZDUYRvniz2K5Hy-33">
          <mxGeometry x="30" width="222.30434782608717" height="30" as="geometry">
            <mxRectangle width="222.30434782608717" height="30" as="alternateBounds" />
          </mxGeometry>
        </mxCell>
        <mxCell id="2oovQzZDUYRvniz2K5Hy-36" value="" style="shape=tableRow;horizontal=0;startSize=0;swimlaneHead=0;swimlaneBody=0;fillColor=none;collapsible=0;dropTarget=0;points=[[0,0.5],[1,0.5]];portConstraint=eastwest;top=0;left=0;right=0;bottom=0;" vertex="1" parent="2oovQzZDUYRvniz2K5Hy-1">
          <mxGeometry y="210" width="252.30434782608717" height="30" as="geometry" />
        </mxCell>
        <mxCell id="2oovQzZDUYRvniz2K5Hy-37" value="" style="shape=partialRectangle;connectable=0;fillColor=none;top=0;left=0;bottom=0;right=0;editable=1;overflow=hidden;whiteSpace=wrap;html=1;" vertex="1" parent="2oovQzZDUYRvniz2K5Hy-36">
          <mxGeometry width="30" height="30" as="geometry">
            <mxRectangle width="30" height="30" as="alternateBounds" />
          </mxGeometry>
        </mxCell>
        <mxCell id="2oovQzZDUYRvniz2K5Hy-38" value="updated_at datetime" style="shape=partialRectangle;connectable=0;fillColor=none;top=0;left=0;bottom=0;right=0;align=left;spacingLeft=6;overflow=hidden;whiteSpace=wrap;html=1;" vertex="1" parent="2oovQzZDUYRvniz2K5Hy-36">
          <mxGeometry x="30" width="222.30434782608717" height="30" as="geometry">
            <mxRectangle width="222.30434782608717" height="30" as="alternateBounds" />
          </mxGeometry>
        </mxCell>
        <mxCell id="2oovQzZDUYRvniz2K5Hy-39" value="" style="shape=tableRow;horizontal=0;startSize=0;swimlaneHead=0;swimlaneBody=0;fillColor=none;collapsible=0;dropTarget=0;points=[[0,0.5],[1,0.5]];portConstraint=eastwest;top=0;left=0;right=0;bottom=0;" vertex="1" parent="2oovQzZDUYRvniz2K5Hy-1">
          <mxGeometry y="240" width="252.30434782608717" height="30" as="geometry" />
        </mxCell>
        <mxCell id="2oovQzZDUYRvniz2K5Hy-40" value="" style="shape=partialRectangle;connectable=0;fillColor=none;top=0;left=0;bottom=0;right=0;editable=1;overflow=hidden;whiteSpace=wrap;html=1;" vertex="1" parent="2oovQzZDUYRvniz2K5Hy-39">
          <mxGeometry width="30" height="30" as="geometry">
            <mxRectangle width="30" height="30" as="alternateBounds" />
          </mxGeometry>
        </mxCell>
        <mxCell id="2oovQzZDUYRvniz2K5Hy-41" value="deleted_at datetime" style="shape=partialRectangle;connectable=0;fillColor=none;top=0;left=0;bottom=0;right=0;align=left;spacingLeft=6;overflow=hidden;whiteSpace=wrap;html=1;" vertex="1" parent="2oovQzZDUYRvniz2K5Hy-39">
          <mxGeometry x="30" width="222.30434782608717" height="30" as="geometry">
            <mxRectangle width="222.30434782608717" height="30" as="alternateBounds" />
          </mxGeometry>
        </mxCell>
        <mxCell id="2oovQzZDUYRvniz2K5Hy-42" value="" style="shape=tableRow;horizontal=0;startSize=0;swimlaneHead=0;swimlaneBody=0;fillColor=none;collapsible=0;dropTarget=0;points=[[0,0.5],[1,0.5]];portConstraint=eastwest;top=0;left=0;right=0;bottom=0;" vertex="1" parent="2oovQzZDUYRvniz2K5Hy-1">
          <mxGeometry y="270" width="252.30434782608717" height="30" as="geometry" />
        </mxCell>
        <mxCell id="2oovQzZDUYRvniz2K5Hy-43" value="FK" style="shape=partialRectangle;connectable=0;fillColor=none;top=0;left=0;bottom=0;right=0;editable=1;overflow=hidden;whiteSpace=wrap;html=1;" vertex="1" parent="2oovQzZDUYRvniz2K5Hy-42">
          <mxGeometry width="30" height="30" as="geometry">
            <mxRectangle width="30" height="30" as="alternateBounds" />
          </mxGeometry>
        </mxCell>
        <mxCell id="2oovQzZDUYRvniz2K5Hy-44" value="created_by" style="shape=partialRectangle;connectable=0;fillColor=none;top=0;left=0;bottom=0;right=0;align=left;spacingLeft=6;overflow=hidden;whiteSpace=wrap;html=1;" vertex="1" parent="2oovQzZDUYRvniz2K5Hy-42">
          <mxGeometry x="30" width="222.30434782608717" height="30" as="geometry">
            <mxRectangle width="222.30434782608717" height="30" as="alternateBounds" />
          </mxGeometry>
        </mxCell>
        <mxCell id="2oovQzZDUYRvniz2K5Hy-45" value="" style="edgeStyle=entityRelationEdgeStyle;fontSize=12;html=1;endArrow=ERmandOne;startArrow=ERmandOne;rounded=0;startSize=8;endSize=8;curved=1;entryX=0;entryY=0.5;entryDx=0;entryDy=0;exitX=0;exitY=0.5;exitDx=0;exitDy=0;" edge="1" parent="2oovQzZDUYRvniz2K5Hy-1" source="2oovQzZDUYRvniz2K5Hy-2" target="2oovQzZDUYRvniz2K5Hy-42">
          <mxGeometry width="100" height="100" relative="1" as="geometry">
            <mxPoint x="-391" y="500" as="sourcePoint" />
            <mxPoint x="-291" y="400" as="targetPoint" />
          </mxGeometry>
        </mxCell>
        <mxCell id="2oovQzZDUYRvniz2K5Hy-20" value="Table" style="shape=table;startSize=30;container=1;collapsible=1;childLayout=tableLayout;fixedRows=1;rowLines=0;fontStyle=1;align=center;resizeLast=1;html=1;" vertex="1" parent="1">
          <mxGeometry x="164" y="189" width="180" height="150" as="geometry" />
        </mxCell>
        <mxCell id="2oovQzZDUYRvniz2K5Hy-21" value="" style="shape=tableRow;horizontal=0;startSize=0;swimlaneHead=0;swimlaneBody=0;fillColor=none;collapsible=0;dropTarget=0;points=[[0,0.5],[1,0.5]];portConstraint=eastwest;top=0;left=0;right=0;bottom=1;" vertex="1" parent="2oovQzZDUYRvniz2K5Hy-20">
          <mxGeometry y="30" width="180" height="30" as="geometry" />
        </mxCell>
        <mxCell id="2oovQzZDUYRvniz2K5Hy-22" value="PK" style="shape=partialRectangle;connectable=0;fillColor=none;top=0;left=0;bottom=0;right=0;fontStyle=1;overflow=hidden;whiteSpace=wrap;html=1;" vertex="1" parent="2oovQzZDUYRvniz2K5Hy-21">
          <mxGeometry width="30" height="30" as="geometry">
            <mxRectangle width="30" height="30" as="alternateBounds" />
          </mxGeometry>
        </mxCell>
        <mxCell id="2oovQzZDUYRvniz2K5Hy-23" value="UniqueID" style="shape=partialRectangle;connectable=0;fillColor=none;top=0;left=0;bottom=0;right=0;align=left;spacingLeft=6;fontStyle=5;overflow=hidden;whiteSpace=wrap;html=1;" vertex="1" parent="2oovQzZDUYRvniz2K5Hy-21">
          <mxGeometry x="30" width="150" height="30" as="geometry">
            <mxRectangle width="150" height="30" as="alternateBounds" />
          </mxGeometry>
        </mxCell>
        <mxCell id="2oovQzZDUYRvniz2K5Hy-24" value="" style="shape=tableRow;horizontal=0;startSize=0;swimlaneHead=0;swimlaneBody=0;fillColor=none;collapsible=0;dropTarget=0;points=[[0,0.5],[1,0.5]];portConstraint=eastwest;top=0;left=0;right=0;bottom=0;" vertex="1" parent="2oovQzZDUYRvniz2K5Hy-20">
          <mxGeometry y="60" width="180" height="30" as="geometry" />
        </mxCell>
        <mxCell id="2oovQzZDUYRvniz2K5Hy-25" value="" style="shape=partialRectangle;connectable=0;fillColor=none;top=0;left=0;bottom=0;right=0;editable=1;overflow=hidden;whiteSpace=wrap;html=1;" vertex="1" parent="2oovQzZDUYRvniz2K5Hy-24">
          <mxGeometry width="30" height="30" as="geometry">
            <mxRectangle width="30" height="30" as="alternateBounds" />
          </mxGeometry>
        </mxCell>
        <mxCell id="2oovQzZDUYRvniz2K5Hy-26" value="Row 1" style="shape=partialRectangle;connectable=0;fillColor=none;top=0;left=0;bottom=0;right=0;align=left;spacingLeft=6;overflow=hidden;whiteSpace=wrap;html=1;" vertex="1" parent="2oovQzZDUYRvniz2K5Hy-24">
          <mxGeometry x="30" width="150" height="30" as="geometry">
            <mxRectangle width="150" height="30" as="alternateBounds" />
          </mxGeometry>
        </mxCell>
        <mxCell id="2oovQzZDUYRvniz2K5Hy-27" value="" style="shape=tableRow;horizontal=0;startSize=0;swimlaneHead=0;swimlaneBody=0;fillColor=none;collapsible=0;dropTarget=0;points=[[0,0.5],[1,0.5]];portConstraint=eastwest;top=0;left=0;right=0;bottom=0;" vertex="1" parent="2oovQzZDUYRvniz2K5Hy-20">
          <mxGeometry y="90" width="180" height="30" as="geometry" />
        </mxCell>
        <mxCell id="2oovQzZDUYRvniz2K5Hy-28" value="" style="shape=partialRectangle;connectable=0;fillColor=none;top=0;left=0;bottom=0;right=0;editable=1;overflow=hidden;whiteSpace=wrap;html=1;" vertex="1" parent="2oovQzZDUYRvniz2K5Hy-27">
          <mxGeometry width="30" height="30" as="geometry">
            <mxRectangle width="30" height="30" as="alternateBounds" />
          </mxGeometry>
        </mxCell>
        <mxCell id="2oovQzZDUYRvniz2K5Hy-29" value="Row 2" style="shape=partialRectangle;connectable=0;fillColor=none;top=0;left=0;bottom=0;right=0;align=left;spacingLeft=6;overflow=hidden;whiteSpace=wrap;html=1;" vertex="1" parent="2oovQzZDUYRvniz2K5Hy-27">
          <mxGeometry x="30" width="150" height="30" as="geometry">
            <mxRectangle width="150" height="30" as="alternateBounds" />
          </mxGeometry>
        </mxCell>
        <mxCell id="2oovQzZDUYRvniz2K5Hy-30" value="" style="shape=tableRow;horizontal=0;startSize=0;swimlaneHead=0;swimlaneBody=0;fillColor=none;collapsible=0;dropTarget=0;points=[[0,0.5],[1,0.5]];portConstraint=eastwest;top=0;left=0;right=0;bottom=0;" vertex="1" parent="2oovQzZDUYRvniz2K5Hy-20">
          <mxGeometry y="120" width="180" height="30" as="geometry" />
        </mxCell>
        <mxCell id="2oovQzZDUYRvniz2K5Hy-31" value="" style="shape=partialRectangle;connectable=0;fillColor=none;top=0;left=0;bottom=0;right=0;editable=1;overflow=hidden;whiteSpace=wrap;html=1;" vertex="1" parent="2oovQzZDUYRvniz2K5Hy-30">
          <mxGeometry width="30" height="30" as="geometry">
            <mxRectangle width="30" height="30" as="alternateBounds" />
          </mxGeometry>
        </mxCell>
        <mxCell id="2oovQzZDUYRvniz2K5Hy-32" value="Row 3" style="shape=partialRectangle;connectable=0;fillColor=none;top=0;left=0;bottom=0;right=0;align=left;spacingLeft=6;overflow=hidden;whiteSpace=wrap;html=1;" vertex="1" parent="2oovQzZDUYRvniz2K5Hy-30">
          <mxGeometry x="30" width="150" height="30" as="geometry">
            <mxRectangle width="150" height="30" as="alternateBounds" />
          </mxGeometry>
        </mxCell>
      </root>
    </mxGraphModel>
  </diagram>
</mxfile>
